HIERARCHY
ROOT Hips
{
	OFFSET 0.000000 0.000000 0.000000
	CHANNELS 6 Xposition Yposition Zposition Zrotation Yrotation Xrotation 
	JOINT LHipJoint
	{
		OFFSET 0.000000 0.000000 0.000000
		CHANNELS 3 Zrotation Yrotation Xrotation
		JOINT LeftUpLeg
		{
			OFFSET 1.363060 -1.794630 0.839290
			CHANNELS 3 Zrotation Yrotation Xrotation
			JOINT LeftLeg
			{
				OFFSET 2.448110 -6.726130 0.000000
				CHANNELS 3 Zrotation Yrotation Xrotation
				JOINT LeftFoot
				{
					OFFSET 2.562200 -7.039590 0.000000
					CHANNELS 3 Zrotation Yrotation Xrotation
					JOINT LeftToeBase
					{
						OFFSET 0.157640 -0.433110 2.322550
						CHANNELS 3 Zrotation Yrotation Xrotation
						End Site
						{
							OFFSET 0.000000 0.000000 0.000000
						}
					}
				}
			}
		}
	}
	JOINT RHipJoint
	{
		OFFSET 0.000000 0.000000 0.000000
		CHANNELS 3 Zrotation Yrotation Xrotation
		JOINT RightUpLeg
		{
			OFFSET -1.305520 -1.794630 0.839290
			CHANNELS 3 Zrotation Yrotation Xrotation
			JOINT RightLeg
			{
				OFFSET -2.542530 -6.985550 0.000000
				CHANNELS 3 Zrotation Yrotation Xrotation
				JOINT RightFoot
				{
					OFFSET -2.568260 -7.056230 0.000000
					CHANNELS 3 Zrotation Yrotation Xrotation
					JOINT RightToeBase
					{
						OFFSET -0.164730 -0.452590 2.363150
						CHANNELS 3 Zrotation Yrotation Xrotation
						End Site
						{
							OFFSET 0.000000 0.000000 0.000000
						}
					}
				}
			}
		}
	}
	JOINT LowerBack
	{
		OFFSET 0.000000 0.000000 0.000000
		CHANNELS 3 Zrotation Yrotation Xrotation
		JOINT Spine
		{
			OFFSET 0.028270 2.035590 -0.193380
			CHANNELS 3 Zrotation Yrotation Xrotation
			JOINT Spine1
			{
				OFFSET 0.056720 2.048850 -0.042750
				CHANNELS 3 Zrotation Yrotation Xrotation
				JOINT Neck
				{
					OFFSET 0.000000 0.000000 0.000000
					CHANNELS 3 Zrotation Yrotation Xrotation
					JOINT Neck1
					{
						OFFSET -0.054170 1.746240 0.172020
						CHANNELS 3 Zrotation Yrotation Xrotation
						JOINT Head
						{
							OFFSET 0.104070 1.761360 -0.123970
							CHANNELS 3 Zrotation Yrotation Xrotation
							End Site
							{
								OFFSET 0.000000 0.000000 0.000000
							}
						}
					}
				}
				JOINT LeftShoulder
				{
					OFFSET 0.000000 0.000000 0.000000
					CHANNELS 3 Zrotation Yrotation Xrotation
					JOINT LeftArm
					{
						OFFSET 3.362410 1.200890 -0.311210
						CHANNELS 3 Zrotation Yrotation Xrotation
						JOINT LeftForeArm
						{
							OFFSET 4.983000 -0.000000 -0.000000
							CHANNELS 3 Zrotation Yrotation Xrotation
							JOINT LeftHand
							{
								OFFSET 3.483560 -0.000000 -0.000000
								CHANNELS 3 Zrotation Yrotation Xrotation
								JOINT LeftFingerBase
								{
									OFFSET 0.000000 0.000000 0.000000
									CHANNELS 3 Zrotation Yrotation Xrotation
									JOINT LeftHandIndex1
									{
										OFFSET 0.715260 -0.000000 -0.000000
										CHANNELS 3 Zrotation Yrotation Xrotation
										End Site
										{
											OFFSET 0.000000 0.000000 0.000000
										}
									}
								}
								JOINT LThumb
								{
									OFFSET 0.000000 0.000000 0.000000
									CHANNELS 3 Zrotation Yrotation Xrotation
									End Site
									{
										OFFSET 0.000000 0.000000 0.000000
									}
								}
							}
						}
					}
				}
				JOINT RightShoulder
				{
					OFFSET 0.000000 0.000000 0.000000
					CHANNELS 3 Zrotation Yrotation Xrotation
					JOINT RightArm
					{
						OFFSET -3.136600 1.374050 -0.404650
						CHANNELS 3 Zrotation Yrotation Xrotation
						JOINT RightForeArm
						{
							OFFSET -5.241900 -0.000000 -0.000000
							CHANNELS 3 Zrotation Yrotation Xrotation
							JOINT RightHand
							{
								OFFSET -3.444170 -0.000000 -0.000000
								CHANNELS 3 Zrotation Yrotation Xrotation
								JOINT RightFingerBase
								{
									OFFSET 0.000000 0.000000 0.000000
									CHANNELS 3 Zrotation Yrotation Xrotation
									JOINT RightHandIndex1
									{
										OFFSET -0.622530 -0.000000 -0.000000
										CHANNELS 3 Zrotation Yrotation Xrotation
										End Site
										{
											OFFSET 0.000000 0.000000 0.000000
										}
									}
								}
								JOINT RThumb
								{
									OFFSET 0.000000 0.000000 0.000000
									CHANNELS 3 Zrotation Yrotation Xrotation
									End Site
									{
										OFFSET 0.000000 0.000000 0.000000
									}
								}
							}
						}
					}
				}
			}
		}
	}
}
MOTION
Frames: 4
Frame Time: 0.008333
-8.853969 17.880524 5.745710 -39.498145 85.266114 -25.568042 -1.697336 -0.865675 0.166403 -4.871241 -3.055574 -26.448333 0.651267 8.772126 25.389483 0.969108 -3.988131 0.531717 0.704200 -5.363500 -14.948200 5.075927 1.029012 0.622119 7.405695 6.225619 -28.554610 -2.192034 -9.385150 27.402569 0.286778 -2.697321 -1.352484 -0.060100 1.582100 -4.352200 0.000291 0.829382 4.989640 4.677878 1.006256 9.328047 4.040161 0.583142 0.606872 3.461046 1.507113 -8.894658 0.667470 5.514754 37.147378 -0.915100 4.101100 18.891300 0.354952 5.258419 -2.020850 -96.134242 -16.758376 84.707253 33.614158 -46.030444 -13.700188 -0.772169 1.145537 -65.691530 30.358868 63.794048 26.926800 -7.125000 0.000000 0.000000 170.598900 6.641100 8.367000 0.503042 -4.257336 -2.020538 85.346116 14.825492 75.739687 -36.846638 48.344142 -16.272208 -0.252447 -0.656364 -65.684506 -42.461017 -13.780321 12.093300 7.125000 0.000000 0.000000 -13.953000 -47.813800 0.986800 
-8.853468 17.882827 5.742606 -39.388471 85.181616 -25.466611 -1.699907 -0.866998 0.168793 -4.845041 -3.003031 -26.421779 0.649417 8.761721 25.366291 0.962236 -3.942754 0.549085 0.699200 -5.344800 -14.894600 5.077979 1.020451 0.623431 7.409253 6.330811 -28.472951 -2.176508 -9.361651 27.320522 0.278651 -2.648019 -1.319459 -0.025800 1.036700 -2.849800 0.326845 1.043281 5.001658 4.327476 1.303738 9.270559 3.718342 0.718759 0.549493 3.835231 1.191665 -8.939706 0.576328 4.952137 37.144718 -1.111700 3.944500 18.884300 0.359607 5.254434 -2.024927 -95.770576 -16.748613 85.383192 33.614607 -46.044063 -13.711354 -0.768981 1.155076 -65.629802 30.698076 63.496801 27.177200 -7.125000 0.000000 0.000000 170.783200 6.435400 8.235500 0.520353 -4.266032 -2.011002 85.791833 14.625448 74.976305 -36.733850 48.268236 -16.189359 -0.255943 -0.651264 -65.330150 -42.300078 -13.800935 12.045500 7.125000 0.000000 0.000000 -13.795300 -47.809900 0.973900 
-8.853468 17.884729 5.741805 -39.109861 85.105652 -25.184784 -1.695419 -0.864458 0.170295 -4.835335 -2.960024 -26.405825 0.646605 8.753036 25.344155 0.954005 -3.883742 0.517007 0.717900 -5.414600 -15.094800 5.086881 1.018108 0.622954 7.417354 6.398713 -28.430997 -2.164192 -9.341386 27.250486 0.289205 -2.712476 -1.241998 -0.028300 1.086900 -2.987900 0.420325 1.131124 5.002944 4.232075 1.424659 9.230815 3.626265 0.775371 0.520922 3.864285 1.026886 -8.925845 0.446065 4.727072 37.114025 -1.218600 3.852500 18.854900 0.359906 5.251984 -2.025098 -95.678301 -16.720153 85.613671 33.589228 -46.029833 -13.697280 -0.768269 1.160960 -65.630618 31.182838 63.367299 27.602600 -7.125000 0.000000 0.000000 170.951400 6.420400 8.083900 0.525337 -4.271162 -2.006081 85.980636 14.547936 74.655111 -36.580821 48.168735 -16.080176 -0.258237 -0.647855 -65.087964 -42.079975 -13.773470 11.932800 7.125000 0.000000 0.000000 -13.570300 -47.732800 0.931200 
-8.853268 17.886230 5.741005 -38.813277 85.057911 -24.902965 -1.692454 -0.857341 0.175586 -4.834540 -2.958438 -26.359756 0.643315 8.745511 25.325847 0.943729 -3.823200 0.521386 0.718000 -5.414900 -15.095900 5.096792 1.019602 0.623709 7.432262 6.406474 -28.396662 -2.152855 -9.323488 27.186009 0.304922 -2.810230 -1.167272 -0.059200 1.570500 -4.320100 0.336304 1.119402 4.989365 4.305575 1.405161 9.250831 3.702303 0.767774 0.539037 3.694267 0.948380 -8.984521 0.302946 4.698272 37.123386 -1.264000 3.798000 18.879900 0.358328 5.253343 -2.024666 -95.769246 -16.730520 85.549133 33.543861 -45.995716 -13.664676 -0.767671 1.163273 -65.643504 31.492958 63.331399 27.886000 -7.125000 0.000000 0.000000 171.043600 6.456900 7.993100 0.520370 -4.270786 -2.005169 85.985930 14.580894 74.682595 -36.457415 48.089069 -15.991993 -0.259601 -0.647252 -64.971381 -41.996826 -13.753213 11.881900 7.125000 0.000000 0.000000 -13.483400 -47.691200 0.911000 
